<mxfile host="app.diagrams.net" modified="2023-09-19T12:12:22.566Z" agent="Mozilla/5.0 (Windows NT 10.0; Win64; x64; rv:109.0) Gecko/20100101 Firefox/117.0" etag="Ow1Or1UNGPUkbxMhdc5f" version="21.6.8" type="github" pages="3">
  <diagram name="желательная" id="74b105a0-9070-1c63-61bc-23e55f88626e">
    <mxGraphModel dx="1434" dy="774" grid="1" gridSize="10" guides="1" tooltips="1" connect="1" arrows="1" fold="1" page="1" pageScale="1.5" pageWidth="1169" pageHeight="826" background="none" math="0" shadow="0">
      <root>
        <mxCell id="0" style=";html=1;" />
        <mxCell id="1" style=";html=1;" parent="0" />
        <mxCell id="pc2m1EUT2kzoiwxsdK9a-4" value="RTVP" style="swimlane;whiteSpace=wrap;html=1;" parent="1" vertex="1">
          <mxGeometry x="520" y="470" width="580" height="230" as="geometry" />
        </mxCell>
        <mxCell id="pc2m1EUT2kzoiwxsdK9a-5" value="TWS X5 Plugin" style="rounded=0;whiteSpace=wrap;html=1;" parent="pc2m1EUT2kzoiwxsdK9a-4" vertex="1">
          <mxGeometry x="30" y="130" width="120" height="60" as="geometry" />
        </mxCell>
        <mxCell id="pc2m1EUT2kzoiwxsdK9a-6" value="RDBMS" style="strokeWidth=2;html=1;shape=mxgraph.flowchart.database;whiteSpace=wrap;" parent="pc2m1EUT2kzoiwxsdK9a-4" vertex="1">
          <mxGeometry x="500" y="90" width="60" height="60" as="geometry" />
        </mxCell>
        <mxCell id="pc2m1EUT2kzoiwxsdK9a-13" style="edgeStyle=orthogonalEdgeStyle;rounded=0;orthogonalLoop=1;jettySize=auto;html=1;entryX=0.02;entryY=0.68;entryDx=0;entryDy=0;entryPerimeter=0;" parent="pc2m1EUT2kzoiwxsdK9a-4" source="pc2m1EUT2kzoiwxsdK9a-10" target="pc2m1EUT2kzoiwxsdK9a-6" edge="1">
          <mxGeometry relative="1" as="geometry" />
        </mxCell>
        <mxCell id="pc2m1EUT2kzoiwxsdK9a-20" style="edgeStyle=orthogonalEdgeStyle;rounded=0;orthogonalLoop=1;jettySize=auto;html=1;" parent="pc2m1EUT2kzoiwxsdK9a-4" source="pc2m1EUT2kzoiwxsdK9a-10" target="pc2m1EUT2kzoiwxsdK9a-5" edge="1">
          <mxGeometry relative="1" as="geometry" />
        </mxCell>
        <mxCell id="pc2m1EUT2kzoiwxsdK9a-10" value="Collector Component" style="rounded=1;whiteSpace=wrap;html=1;" parent="pc2m1EUT2kzoiwxsdK9a-4" vertex="1">
          <mxGeometry x="220" y="130" width="140" height="60" as="geometry" />
        </mxCell>
        <mxCell id="pc2m1EUT2kzoiwxsdK9a-12" style="edgeStyle=orthogonalEdgeStyle;rounded=0;orthogonalLoop=1;jettySize=auto;html=1;entryX=0;entryY=0.5;entryDx=0;entryDy=0;entryPerimeter=0;" parent="pc2m1EUT2kzoiwxsdK9a-4" source="pc2m1EUT2kzoiwxsdK9a-9" target="pc2m1EUT2kzoiwxsdK9a-6" edge="1">
          <mxGeometry relative="1" as="geometry" />
        </mxCell>
        <mxCell id="pc2m1EUT2kzoiwxsdK9a-9" value="API Component" style="rounded=1;whiteSpace=wrap;html=1;" parent="pc2m1EUT2kzoiwxsdK9a-4" vertex="1">
          <mxGeometry x="220" y="40" width="140" height="60" as="geometry" />
        </mxCell>
        <mxCell id="pc2m1EUT2kzoiwxsdK9a-8" value="TMS X5" style="swimlane;whiteSpace=wrap;html=1;" parent="1" vertex="1">
          <mxGeometry x="510" y="70" width="490" height="200" as="geometry" />
        </mxCell>
        <mxCell id="pc2m1EUT2kzoiwxsdK9a-34" value="" style="rounded=1;whiteSpace=wrap;html=1;" parent="pc2m1EUT2kzoiwxsdK9a-8" vertex="1">
          <mxGeometry x="120" y="50" width="120" height="60" as="geometry" />
        </mxCell>
        <mxCell id="pc2m1EUT2kzoiwxsdK9a-27" value="Координаты + JWT токен" style="edgeStyle=orthogonalEdgeStyle;rounded=0;orthogonalLoop=1;jettySize=auto;html=1;" parent="1" source="pc2m1EUT2kzoiwxsdK9a-33" target="pc2m1EUT2kzoiwxsdK9a-26" edge="1">
          <mxGeometry relative="1" as="geometry" />
        </mxCell>
        <mxCell id="pc2m1EUT2kzoiwxsdK9a-15" value="TMS Mobile" style="swimlane;whiteSpace=wrap;html=1;" parent="1" vertex="1">
          <mxGeometry x="130" y="60" width="200" height="200" as="geometry" />
        </mxCell>
        <mxCell id="pc2m1EUT2kzoiwxsdK9a-33" value="" style="rounded=1;whiteSpace=wrap;html=1;" parent="pc2m1EUT2kzoiwxsdK9a-15" vertex="1">
          <mxGeometry x="40" y="80" width="120" height="60" as="geometry" />
        </mxCell>
        <mxCell id="pc2m1EUT2kzoiwxsdK9a-16" value="Data Proxy" style="swimlane;whiteSpace=wrap;html=1;" parent="1" vertex="1">
          <mxGeometry x="110" y="500" width="310" height="200" as="geometry" />
        </mxCell>
        <mxCell id="pc2m1EUT2kzoiwxsdK9a-32" style="edgeStyle=orthogonalEdgeStyle;rounded=0;orthogonalLoop=1;jettySize=auto;html=1;entryX=1;entryY=0.5;entryDx=0;entryDy=0;entryPerimeter=0;" parent="pc2m1EUT2kzoiwxsdK9a-16" source="pc2m1EUT2kzoiwxsdK9a-24" target="pc2m1EUT2kzoiwxsdK9a-30" edge="1">
          <mxGeometry relative="1" as="geometry" />
        </mxCell>
        <mxCell id="pc2m1EUT2kzoiwxsdK9a-24" value="Internal API" style="rounded=1;whiteSpace=wrap;html=1;" parent="pc2m1EUT2kzoiwxsdK9a-16" vertex="1">
          <mxGeometry x="170" y="110" width="120" height="60" as="geometry" />
        </mxCell>
        <mxCell id="pc2m1EUT2kzoiwxsdK9a-31" style="edgeStyle=orthogonalEdgeStyle;rounded=0;orthogonalLoop=1;jettySize=auto;html=1;" parent="pc2m1EUT2kzoiwxsdK9a-16" source="pc2m1EUT2kzoiwxsdK9a-26" target="pc2m1EUT2kzoiwxsdK9a-30" edge="1">
          <mxGeometry relative="1" as="geometry" />
        </mxCell>
        <mxCell id="pc2m1EUT2kzoiwxsdK9a-26" value="External API" style="rounded=1;whiteSpace=wrap;html=1;" parent="pc2m1EUT2kzoiwxsdK9a-16" vertex="1">
          <mxGeometry x="30" y="30" width="120" height="60" as="geometry" />
        </mxCell>
        <mxCell id="pc2m1EUT2kzoiwxsdK9a-30" value="" style="strokeWidth=2;html=1;shape=mxgraph.flowchart.database;whiteSpace=wrap;" parent="pc2m1EUT2kzoiwxsdK9a-16" vertex="1">
          <mxGeometry x="40" y="120" width="60" height="60" as="geometry" />
        </mxCell>
        <mxCell id="pc2m1EUT2kzoiwxsdK9a-23" value="Данные датчиков" style="edgeStyle=orthogonalEdgeStyle;rounded=0;orthogonalLoop=1;jettySize=auto;html=1;entryX=1.004;entryY=0.373;entryDx=0;entryDy=0;entryPerimeter=0;exitX=0.5;exitY=1;exitDx=0;exitDy=0;" parent="1" source="pc2m1EUT2kzoiwxsdK9a-5" target="pc2m1EUT2kzoiwxsdK9a-24" edge="1">
          <mxGeometry relative="1" as="geometry" />
        </mxCell>
        <mxCell id="pc2m1EUT2kzoiwxsdK9a-29" value="проверка токена" style="edgeStyle=orthogonalEdgeStyle;rounded=0;orthogonalLoop=1;jettySize=auto;html=1;entryX=-0.003;entryY=0.618;entryDx=0;entryDy=0;entryPerimeter=0;" parent="1" source="pc2m1EUT2kzoiwxsdK9a-26" target="pc2m1EUT2kzoiwxsdK9a-9" edge="1">
          <mxGeometry relative="1" as="geometry" />
        </mxCell>
        <mxCell id="pc2m1EUT2kzoiwxsdK9a-36" value="JWT токен" style="edgeStyle=orthogonalEdgeStyle;rounded=0;orthogonalLoop=1;jettySize=auto;html=1;exitX=1;exitY=0.5;exitDx=0;exitDy=0;" parent="1" source="pc2m1EUT2kzoiwxsdK9a-34" target="pc2m1EUT2kzoiwxsdK9a-9" edge="1">
          <mxGeometry relative="1" as="geometry" />
        </mxCell>
        <mxCell id="pc2m1EUT2kzoiwxsdK9a-37" value="настройки + JWT токен" style="edgeStyle=orthogonalEdgeStyle;rounded=0;orthogonalLoop=1;jettySize=auto;html=1;" parent="1" source="pc2m1EUT2kzoiwxsdK9a-33" target="pc2m1EUT2kzoiwxsdK9a-34" edge="1">
          <mxGeometry relative="1" as="geometry" />
        </mxCell>
        <mxCell id="pc2m1EUT2kzoiwxsdK9a-38" value="спиисок объектов мониторинга" style="edgeStyle=orthogonalEdgeStyle;rounded=0;orthogonalLoop=1;jettySize=auto;html=1;entryX=0.5;entryY=1;entryDx=0;entryDy=0;" parent="1" source="pc2m1EUT2kzoiwxsdK9a-5" target="pc2m1EUT2kzoiwxsdK9a-34" edge="1">
          <mxGeometry relative="1" as="geometry" />
        </mxCell>
        <object placeholders="1" c4Name="RTVP-TMS-Mobile" c4Type="ContainerDiagramTitle" c4Description="предпочтительная схема" label="&lt;font style=&quot;font-size: 16px&quot;&gt;&lt;b&gt;&lt;div style=&quot;text-align: left&quot;&gt;%c4Name%&lt;/div&gt;&lt;/b&gt;&lt;/font&gt;&lt;div style=&quot;text-align: left&quot;&gt;%c4Description%&lt;/div&gt;" id="BQD_TY5szDUOwG55Ezy5-1">
          <mxCell style="text;html=1;strokeColor=none;fillColor=none;align=left;verticalAlign=top;whiteSpace=wrap;rounded=0;metaEdit=1;allowArrows=0;resizable=1;rotatable=0;connectable=0;recursiveResize=0;expand=0;pointerEvents=0;points=[[0.25,0,0],[0.5,0,0],[0.75,0,0],[1,0.25,0],[1,0.5,0],[1,0.75,0],[0.75,1,0],[0.5,1,0],[0.25,1,0],[0,0.75,0],[0,0.5,0],[0,0.25,0]];" parent="1" vertex="1">
            <mxGeometry x="360" y="310" width="260" height="40" as="geometry" />
          </mxCell>
        </object>
      </root>
    </mxGraphModel>
  </diagram>
  <diagram name="желательная2" id="Z-emMqpk38f8x8asANi4">
    <mxGraphModel dx="1434" dy="774" grid="1" gridSize="10" guides="1" tooltips="1" connect="1" arrows="1" fold="1" page="1" pageScale="1.5" pageWidth="1169" pageHeight="826" background="none" math="0" shadow="0">
      <root>
        <mxCell id="tSx8S32rKkU77oZO9det-0" style=";html=1;" />
        <mxCell id="tSx8S32rKkU77oZO9det-1" style=";html=1;" parent="tSx8S32rKkU77oZO9det-0" />
        <mxCell id="tSx8S32rKkU77oZO9det-2" value="RTVP" style="swimlane;whiteSpace=wrap;html=1;" vertex="1" parent="tSx8S32rKkU77oZO9det-1">
          <mxGeometry x="520" y="470" width="580" height="230" as="geometry" />
        </mxCell>
        <mxCell id="tSx8S32rKkU77oZO9det-3" value="TWS X5 Plugin" style="rounded=0;whiteSpace=wrap;html=1;" vertex="1" parent="tSx8S32rKkU77oZO9det-2">
          <mxGeometry x="30" y="130" width="120" height="60" as="geometry" />
        </mxCell>
        <mxCell id="tSx8S32rKkU77oZO9det-4" value="RDBMS" style="strokeWidth=2;html=1;shape=mxgraph.flowchart.database;whiteSpace=wrap;" vertex="1" parent="tSx8S32rKkU77oZO9det-2">
          <mxGeometry x="500" y="90" width="60" height="60" as="geometry" />
        </mxCell>
        <mxCell id="tSx8S32rKkU77oZO9det-5" style="edgeStyle=orthogonalEdgeStyle;rounded=0;orthogonalLoop=1;jettySize=auto;html=1;entryX=0.02;entryY=0.68;entryDx=0;entryDy=0;entryPerimeter=0;" edge="1" parent="tSx8S32rKkU77oZO9det-2" source="tSx8S32rKkU77oZO9det-7" target="tSx8S32rKkU77oZO9det-4">
          <mxGeometry relative="1" as="geometry" />
        </mxCell>
        <mxCell id="tSx8S32rKkU77oZO9det-6" style="edgeStyle=orthogonalEdgeStyle;rounded=0;orthogonalLoop=1;jettySize=auto;html=1;" edge="1" parent="tSx8S32rKkU77oZO9det-2" source="tSx8S32rKkU77oZO9det-7" target="tSx8S32rKkU77oZO9det-3">
          <mxGeometry relative="1" as="geometry" />
        </mxCell>
        <mxCell id="tSx8S32rKkU77oZO9det-7" value="Collector Component" style="rounded=1;whiteSpace=wrap;html=1;" vertex="1" parent="tSx8S32rKkU77oZO9det-2">
          <mxGeometry x="220" y="130" width="140" height="60" as="geometry" />
        </mxCell>
        <mxCell id="tSx8S32rKkU77oZO9det-8" style="edgeStyle=orthogonalEdgeStyle;rounded=0;orthogonalLoop=1;jettySize=auto;html=1;entryX=0;entryY=0.5;entryDx=0;entryDy=0;entryPerimeter=0;" edge="1" parent="tSx8S32rKkU77oZO9det-2" source="tSx8S32rKkU77oZO9det-9" target="tSx8S32rKkU77oZO9det-4">
          <mxGeometry relative="1" as="geometry" />
        </mxCell>
        <mxCell id="tSx8S32rKkU77oZO9det-9" value="API Component" style="rounded=1;whiteSpace=wrap;html=1;" vertex="1" parent="tSx8S32rKkU77oZO9det-2">
          <mxGeometry x="220" y="40" width="140" height="60" as="geometry" />
        </mxCell>
        <mxCell id="tSx8S32rKkU77oZO9det-12" value="Данные датчиков + JWT токен" style="edgeStyle=orthogonalEdgeStyle;rounded=0;orthogonalLoop=1;jettySize=auto;html=1;exitX=0;exitY=0.5;exitDx=0;exitDy=0;" edge="1" parent="tSx8S32rKkU77oZO9det-1" source="tSx8S32rKkU77oZO9det-14" target="tSx8S32rKkU77oZO9det-19">
          <mxGeometry relative="1" as="geometry" />
        </mxCell>
        <mxCell id="tSx8S32rKkU77oZO9det-13" value="TMS Mobile" style="swimlane;whiteSpace=wrap;html=1;" vertex="1" parent="tSx8S32rKkU77oZO9det-1">
          <mxGeometry x="130" y="60" width="200" height="200" as="geometry" />
        </mxCell>
        <mxCell id="tSx8S32rKkU77oZO9det-14" value="" style="rounded=1;whiteSpace=wrap;html=1;" vertex="1" parent="tSx8S32rKkU77oZO9det-13">
          <mxGeometry x="40" y="80" width="120" height="60" as="geometry" />
        </mxCell>
        <mxCell id="tSx8S32rKkU77oZO9det-15" value="Data Proxy" style="swimlane;whiteSpace=wrap;html=1;" vertex="1" parent="tSx8S32rKkU77oZO9det-1">
          <mxGeometry x="110" y="500" width="310" height="200" as="geometry" />
        </mxCell>
        <mxCell id="tSx8S32rKkU77oZO9det-16" style="edgeStyle=orthogonalEdgeStyle;rounded=0;orthogonalLoop=1;jettySize=auto;html=1;entryX=1;entryY=0.5;entryDx=0;entryDy=0;entryPerimeter=0;" edge="1" parent="tSx8S32rKkU77oZO9det-15" source="tSx8S32rKkU77oZO9det-17" target="tSx8S32rKkU77oZO9det-20">
          <mxGeometry relative="1" as="geometry" />
        </mxCell>
        <mxCell id="tSx8S32rKkU77oZO9det-17" value="Internal API" style="rounded=1;whiteSpace=wrap;html=1;" vertex="1" parent="tSx8S32rKkU77oZO9det-15">
          <mxGeometry x="170" y="110" width="120" height="60" as="geometry" />
        </mxCell>
        <mxCell id="tSx8S32rKkU77oZO9det-18" style="edgeStyle=orthogonalEdgeStyle;rounded=0;orthogonalLoop=1;jettySize=auto;html=1;" edge="1" parent="tSx8S32rKkU77oZO9det-15" source="tSx8S32rKkU77oZO9det-19" target="tSx8S32rKkU77oZO9det-20">
          <mxGeometry relative="1" as="geometry" />
        </mxCell>
        <mxCell id="tSx8S32rKkU77oZO9det-19" value="External API" style="rounded=1;whiteSpace=wrap;html=1;" vertex="1" parent="tSx8S32rKkU77oZO9det-15">
          <mxGeometry x="30" y="30" width="120" height="60" as="geometry" />
        </mxCell>
        <mxCell id="tSx8S32rKkU77oZO9det-20" value="" style="strokeWidth=2;html=1;shape=mxgraph.flowchart.database;whiteSpace=wrap;" vertex="1" parent="tSx8S32rKkU77oZO9det-15">
          <mxGeometry x="40" y="120" width="60" height="60" as="geometry" />
        </mxCell>
        <mxCell id="tSx8S32rKkU77oZO9det-21" value="Данные датчиков" style="edgeStyle=orthogonalEdgeStyle;rounded=0;orthogonalLoop=1;jettySize=auto;html=1;entryX=1.004;entryY=0.373;entryDx=0;entryDy=0;entryPerimeter=0;exitX=0.5;exitY=1;exitDx=0;exitDy=0;" edge="1" parent="tSx8S32rKkU77oZO9det-1" source="tSx8S32rKkU77oZO9det-3" target="tSx8S32rKkU77oZO9det-17">
          <mxGeometry relative="1" as="geometry" />
        </mxCell>
        <object placeholders="1" c4Name="RTVP-TMS-Mobile" c4Type="ContainerDiagramTitle" c4Description="предпочтительная схема - 2" label="&lt;font style=&quot;font-size: 16px&quot;&gt;&lt;b&gt;&lt;div style=&quot;text-align: left&quot;&gt;%c4Name%&lt;/div&gt;&lt;/b&gt;&lt;/font&gt;&lt;div style=&quot;text-align: left&quot;&gt;%c4Description%&lt;/div&gt;" id="tSx8S32rKkU77oZO9det-26">
          <mxCell style="text;html=1;strokeColor=none;fillColor=none;align=left;verticalAlign=top;whiteSpace=wrap;rounded=0;metaEdit=1;allowArrows=0;resizable=1;rotatable=0;connectable=0;recursiveResize=0;expand=0;pointerEvents=0;points=[[0.25,0,0],[0.5,0,0],[0.75,0,0],[1,0.25,0],[1,0.5,0],[1,0.75,0],[0.75,1,0],[0.5,1,0],[0.25,1,0],[0,0.75,0],[0,0.5,0],[0,0.25,0]];" vertex="1" parent="tSx8S32rKkU77oZO9det-1">
            <mxGeometry x="390" y="40" width="260" height="40" as="geometry" />
          </mxCell>
        </object>
        <mxCell id="ktOnHeSMmgy3L0h40rcj-0" value="AxMam" style="swimlane;whiteSpace=wrap;html=1;" vertex="1" parent="tSx8S32rKkU77oZO9det-1">
          <mxGeometry x="590" y="100" width="200" height="170" as="geometry" />
        </mxCell>
        <mxCell id="ktOnHeSMmgy3L0h40rcj-1" value="Конфигурация" style="rounded=1;whiteSpace=wrap;html=1;" vertex="1" parent="ktOnHeSMmgy3L0h40rcj-0">
          <mxGeometry x="20" y="40" width="120" height="60" as="geometry" />
        </mxCell>
        <mxCell id="ktOnHeSMmgy3L0h40rcj-2" style="edgeStyle=orthogonalEdgeStyle;rounded=0;orthogonalLoop=1;jettySize=auto;html=1;entryX=0;entryY=0.5;entryDx=0;entryDy=0;" edge="1" parent="tSx8S32rKkU77oZO9det-1" source="tSx8S32rKkU77oZO9det-14" target="ktOnHeSMmgy3L0h40rcj-1">
          <mxGeometry relative="1" as="geometry" />
        </mxCell>
        <mxCell id="ktOnHeSMmgy3L0h40rcj-3" value="Private key для токена и адрес DataProxy" style="edgeLabel;html=1;align=center;verticalAlign=middle;resizable=0;points=[];" vertex="1" connectable="0" parent="ktOnHeSMmgy3L0h40rcj-2">
          <mxGeometry x="0.3415" y="2" relative="1" as="geometry">
            <mxPoint as="offset" />
          </mxGeometry>
        </mxCell>
        <mxCell id="C_KNxXhGVmDPq3MsO7Rk-0" value="TMS X5" style="swimlane;whiteSpace=wrap;html=1;" vertex="1" parent="tSx8S32rKkU77oZO9det-1">
          <mxGeometry x="850" y="80" width="240" height="200" as="geometry" />
        </mxCell>
        <mxCell id="C_KNxXhGVmDPq3MsO7Rk-1" value="" style="rounded=1;whiteSpace=wrap;html=1;" vertex="1" parent="C_KNxXhGVmDPq3MsO7Rk-0">
          <mxGeometry x="70" y="50" width="120" height="60" as="geometry" />
        </mxCell>
        <mxCell id="C_KNxXhGVmDPq3MsO7Rk-2" style="edgeStyle=orthogonalEdgeStyle;rounded=0;orthogonalLoop=1;jettySize=auto;html=1;entryX=0.429;entryY=0;entryDx=0;entryDy=0;entryPerimeter=0;exitX=0.5;exitY=1;exitDx=0;exitDy=0;" edge="1" parent="tSx8S32rKkU77oZO9det-1" source="C_KNxXhGVmDPq3MsO7Rk-1" target="tSx8S32rKkU77oZO9det-9">
          <mxGeometry relative="1" as="geometry" />
        </mxCell>
        <mxCell id="C_KNxXhGVmDPq3MsO7Rk-3" value="Существующая интеграция" style="edgeLabel;html=1;align=center;verticalAlign=middle;resizable=0;points=[];" vertex="1" connectable="0" parent="C_KNxXhGVmDPq3MsO7Rk-2">
          <mxGeometry x="0.4359" y="-2" relative="1" as="geometry">
            <mxPoint as="offset" />
          </mxGeometry>
        </mxCell>
        <mxCell id="C_KNxXhGVmDPq3MsO7Rk-4" style="edgeStyle=orthogonalEdgeStyle;rounded=0;orthogonalLoop=1;jettySize=auto;html=1;entryX=0.25;entryY=1;entryDx=0;entryDy=0;exitX=0.5;exitY=1;exitDx=0;exitDy=0;" edge="1" parent="tSx8S32rKkU77oZO9det-1" source="tSx8S32rKkU77oZO9det-14" target="C_KNxXhGVmDPq3MsO7Rk-1">
          <mxGeometry relative="1" as="geometry">
            <Array as="points">
              <mxPoint x="230" y="310" />
              <mxPoint x="950" y="310" />
            </Array>
          </mxGeometry>
        </mxCell>
        <mxCell id="C_KNxXhGVmDPq3MsO7Rk-5" value="&lt;div&gt;RTVP OrganizationID&lt;/div&gt;" style="edgeLabel;html=1;align=center;verticalAlign=middle;resizable=0;points=[];" vertex="1" connectable="0" parent="C_KNxXhGVmDPq3MsO7Rk-4">
          <mxGeometry x="-0.0484" y="-1" relative="1" as="geometry">
            <mxPoint as="offset" />
          </mxGeometry>
        </mxCell>
        <mxCell id="C_KNxXhGVmDPq3MsO7Rk-6" value="&lt;div&gt;JWT токен шифруется закрытым ключом&lt;/div&gt;&lt;div&gt;содержит:&lt;/div&gt;&lt;div&gt;- TermialId&lt;/div&gt;&lt;div&gt;- OrganizationId&lt;/div&gt;&lt;div&gt;&lt;br&gt;&lt;/div&gt;&lt;div&gt;формат данных (можно plain text или бинарный):&lt;/div&gt;&lt;div&gt;- unix time stamp UTC&lt;/div&gt;&lt;div&gt;- тип датчика (location, speed, azimuth, etc)&lt;/div&gt;&lt;div&gt;- значение&lt;br&gt;&lt;/div&gt;&lt;div&gt;&lt;br&gt;&lt;/div&gt;&lt;div&gt;&lt;br&gt;&lt;/div&gt;&lt;div align=&quot;left&quot;&gt;&lt;br&gt;&lt;/div&gt;" style="text;html=1;align=center;verticalAlign=middle;resizable=0;points=[];autosize=1;strokeColor=none;fillColor=none;" vertex="1" parent="tSx8S32rKkU77oZO9det-1">
          <mxGeometry x="240" y="320" width="300" height="190" as="geometry" />
        </mxCell>
        <mxCell id="C_KNxXhGVmDPq3MsO7Rk-7" style="edgeStyle=orthogonalEdgeStyle;rounded=0;orthogonalLoop=1;jettySize=auto;html=1;entryX=0.75;entryY=1;entryDx=0;entryDy=0;exitX=0.5;exitY=0;exitDx=0;exitDy=0;" edge="1" parent="tSx8S32rKkU77oZO9det-1" source="tSx8S32rKkU77oZO9det-3" target="C_KNxXhGVmDPq3MsO7Rk-1">
          <mxGeometry relative="1" as="geometry">
            <Array as="points">
              <mxPoint x="610" y="410" />
              <mxPoint x="1010" y="410" />
            </Array>
          </mxGeometry>
        </mxCell>
        <mxCell id="C_KNxXhGVmDPq3MsO7Rk-8" value="&lt;div&gt;Список мобильных терминалов&amp;nbsp;&lt;/div&gt;&lt;div&gt;(логин/пароль указывается при создании externalResource)&lt;/div&gt;" style="edgeLabel;html=1;align=center;verticalAlign=middle;resizable=0;points=[];" vertex="1" connectable="0" parent="C_KNxXhGVmDPq3MsO7Rk-7">
          <mxGeometry x="0.2889" y="-3" relative="1" as="geometry">
            <mxPoint x="58" y="-3" as="offset" />
          </mxGeometry>
        </mxCell>
      </root>
    </mxGraphModel>
  </diagram>
  <diagram id="f_a8Fa5P6km4YSJOjpAg" name="предлагаемая">
    <mxGraphModel dx="1434" dy="774" grid="1" gridSize="10" guides="1" tooltips="1" connect="1" arrows="1" fold="1" page="1" pageScale="1" pageWidth="1169" pageHeight="827" math="0" shadow="0">
      <root>
        <mxCell id="0" />
        <mxCell id="1" parent="0" />
        <mxCell id="u2g-V_Y5iYY35ipoLynW-1" value="RTVP" style="swimlane;whiteSpace=wrap;html=1;" parent="1" vertex="1">
          <mxGeometry x="435" y="504" width="580" height="230" as="geometry" />
        </mxCell>
        <mxCell id="u2g-V_Y5iYY35ipoLynW-3" value="RDBMS" style="strokeWidth=2;html=1;shape=mxgraph.flowchart.database;whiteSpace=wrap;" parent="u2g-V_Y5iYY35ipoLynW-1" vertex="1">
          <mxGeometry x="500" y="90" width="60" height="60" as="geometry" />
        </mxCell>
        <mxCell id="u2g-V_Y5iYY35ipoLynW-7" style="edgeStyle=orthogonalEdgeStyle;rounded=0;orthogonalLoop=1;jettySize=auto;html=1;entryX=0;entryY=0.5;entryDx=0;entryDy=0;entryPerimeter=0;" parent="u2g-V_Y5iYY35ipoLynW-1" source="u2g-V_Y5iYY35ipoLynW-8" target="u2g-V_Y5iYY35ipoLynW-3" edge="1">
          <mxGeometry relative="1" as="geometry" />
        </mxCell>
        <mxCell id="u2g-V_Y5iYY35ipoLynW-8" value="API Component" style="rounded=1;whiteSpace=wrap;html=1;" parent="u2g-V_Y5iYY35ipoLynW-1" vertex="1">
          <mxGeometry x="220" y="40" width="140" height="60" as="geometry" />
        </mxCell>
        <mxCell id="u2g-V_Y5iYY35ipoLynW-9" value="TMS X5" style="swimlane;whiteSpace=wrap;html=1;" parent="1" vertex="1">
          <mxGeometry x="435" y="190" width="490" height="200" as="geometry" />
        </mxCell>
        <mxCell id="u2g-V_Y5iYY35ipoLynW-10" value="" style="rounded=1;whiteSpace=wrap;html=1;" parent="u2g-V_Y5iYY35ipoLynW-9" vertex="1">
          <mxGeometry x="120" y="50" width="120" height="60" as="geometry" />
        </mxCell>
        <mxCell id="u2g-V_Y5iYY35ipoLynW-11" value="Координаты + JWT токен" style="edgeStyle=orthogonalEdgeStyle;rounded=0;orthogonalLoop=1;jettySize=auto;html=1;" parent="1" source="u2g-V_Y5iYY35ipoLynW-13" target="u2g-V_Y5iYY35ipoLynW-18" edge="1">
          <mxGeometry relative="1" as="geometry" />
        </mxCell>
        <mxCell id="u2g-V_Y5iYY35ipoLynW-12" value="TMS Mobile" style="swimlane;whiteSpace=wrap;html=1;" parent="1" vertex="1">
          <mxGeometry x="55" y="94" width="200" height="200" as="geometry" />
        </mxCell>
        <mxCell id="u2g-V_Y5iYY35ipoLynW-13" value="" style="rounded=1;whiteSpace=wrap;html=1;" parent="u2g-V_Y5iYY35ipoLynW-12" vertex="1">
          <mxGeometry x="40" y="80" width="120" height="60" as="geometry" />
        </mxCell>
        <mxCell id="u2g-V_Y5iYY35ipoLynW-14" value="Data Proxy" style="swimlane;whiteSpace=wrap;html=1;" parent="1" vertex="1">
          <mxGeometry x="35" y="534" width="310" height="200" as="geometry" />
        </mxCell>
        <mxCell id="u2g-V_Y5iYY35ipoLynW-18" value="External API" style="rounded=1;whiteSpace=wrap;html=1;" parent="u2g-V_Y5iYY35ipoLynW-14" vertex="1">
          <mxGeometry x="30" y="30" width="120" height="60" as="geometry" />
        </mxCell>
        <mxCell id="u2g-V_Y5iYY35ipoLynW-21" value="проверка токена" style="edgeStyle=orthogonalEdgeStyle;rounded=0;orthogonalLoop=1;jettySize=auto;html=1;entryX=-0.003;entryY=0.618;entryDx=0;entryDy=0;entryPerimeter=0;" parent="1" source="u2g-V_Y5iYY35ipoLynW-18" target="u2g-V_Y5iYY35ipoLynW-8" edge="1">
          <mxGeometry relative="1" as="geometry" />
        </mxCell>
        <mxCell id="u2g-V_Y5iYY35ipoLynW-22" value="JWT токен" style="edgeStyle=orthogonalEdgeStyle;rounded=0;orthogonalLoop=1;jettySize=auto;html=1;" parent="1" source="u2g-V_Y5iYY35ipoLynW-10" target="u2g-V_Y5iYY35ipoLynW-8" edge="1">
          <mxGeometry relative="1" as="geometry" />
        </mxCell>
        <mxCell id="u2g-V_Y5iYY35ipoLynW-23" value="настройки + JWT токен" style="edgeStyle=orthogonalEdgeStyle;rounded=0;orthogonalLoop=1;jettySize=auto;html=1;" parent="1" source="u2g-V_Y5iYY35ipoLynW-13" target="u2g-V_Y5iYY35ipoLynW-10" edge="1">
          <mxGeometry relative="1" as="geometry" />
        </mxCell>
        <mxCell id="u2g-V_Y5iYY35ipoLynW-25" value="данные датчиков" style="edgeStyle=orthogonalEdgeStyle;rounded=0;orthogonalLoop=1;jettySize=auto;html=1;entryX=0.633;entryY=1.033;entryDx=0;entryDy=0;entryPerimeter=0;" parent="1" source="u2g-V_Y5iYY35ipoLynW-18" target="u2g-V_Y5iYY35ipoLynW-3" edge="1">
          <mxGeometry relative="1" as="geometry">
            <Array as="points">
              <mxPoint x="125" y="694" />
              <mxPoint x="1093" y="694" />
            </Array>
          </mxGeometry>
        </mxCell>
        <mxCell id="u2g-V_Y5iYY35ipoLynW-26" value="создать/удалить объект мониторинга" style="edgeStyle=orthogonalEdgeStyle;rounded=0;orthogonalLoop=1;jettySize=auto;html=1;entryX=0.75;entryY=0;entryDx=0;entryDy=0;exitX=1;exitY=0.5;exitDx=0;exitDy=0;" parent="1" source="u2g-V_Y5iYY35ipoLynW-10" target="u2g-V_Y5iYY35ipoLynW-8" edge="1">
          <mxGeometry relative="1" as="geometry">
            <mxPoint x="625" y="264" as="targetPoint" />
            <Array as="points">
              <mxPoint x="760" y="270" />
            </Array>
          </mxGeometry>
        </mxCell>
        <object placeholders="1" c4Name="RTVP-TMS-Mobile" c4Type="ContainerDiagramTitle" c4Description="предлагаемая схема" label="&lt;font style=&quot;font-size: 16px&quot;&gt;&lt;b&gt;&lt;div style=&quot;text-align: left&quot;&gt;%c4Name%&lt;/div&gt;&lt;/b&gt;&lt;/font&gt;&lt;div style=&quot;text-align: left&quot;&gt;%c4Description%&lt;/div&gt;" id="rqfN_GbwdfvclOmeV7Kz-2">
          <mxCell style="text;html=1;strokeColor=none;fillColor=none;align=left;verticalAlign=top;whiteSpace=wrap;rounded=0;metaEdit=1;allowArrows=0;resizable=1;rotatable=0;connectable=0;recursiveResize=0;expand=0;pointerEvents=0;points=[[0.25,0,0],[0.5,0,0],[0.75,0,0],[1,0.25,0],[1,0.5,0],[1,0.75,0],[0.75,1,0],[0.5,1,0],[0.25,1,0],[0,0.75,0],[0,0.5,0],[0,0.25,0]];" parent="1" vertex="1">
            <mxGeometry x="810" y="420" width="260" height="40" as="geometry" />
          </mxCell>
        </object>
      </root>
    </mxGraphModel>
  </diagram>
</mxfile>
